<?xml version="1.0" encoding="utf-8"?><svg width="67" height="341" viewBox="0 0 67 341" xmlns="http://www.w3.org/2000/svg" xmlns:xlink="http://www.w3.org/1999/xlink"><svg id="bones" viewBox="0 0 164.4 432.6" width="19" height="51" xmlns="http://www.w3.org/2000/svg"><style>.abones{fill:#fff}</style><g class="abones"><path d="M110 432.6c-6.9 0-12.6-5.6-12.7-12.5-.6-52.2 3.7-89.2 12.6-110 4.4-10.3 11.5-18 17.8-24.9l.1-.1c4.4-4.8 9.4-10.3 10-13.6v-.2l.1-.2c.9-3.3 1.3-6.1 1.2-9.1-.1-2-.3-3.9-.8-5.7-7.4 3.6-15.6 5.6-23.8 5.9l-1.9.1c-10.1 0-19.9-2.5-28.7-7.3-9 5.8-19.3 9-30 9.3h-1.8c-9.1 0-18-2-25.9-5.9a25 25 0 0 0-.9 7.7c.1 2.8.6 5.5 1.6 8l.1.2.1.2c1 3.6 5.6 8 10 12.3 6.6 6.3 14.1 13.5 18.7 23.7 9.5 20.5 14 57.4 13.4 109.6 0 6.9-5.7 12.5-12.6 12.5h-.1c-3.4 0-6.5-1.4-8.9-3.8-2.4-2.4-3.6-5.6-3.6-9 .7-60.3-5.6-86.9-11.1-98.7-2.8-5.9-8.1-11.1-13.3-16.1l-.2-.2c-6.8-6.6-13.9-13.5-16.4-23-1.6-4.5-2.6-9.8-2.8-15-.4-12.6 3.8-24.9 11.8-34.6 2.2-2.7 5.3-4.3 8.7-4.6h1.1c3 0 5.9 1.1 8.2 3 2.3 1.9 4.6 3.5 6.8 4.6 4.8 2.4 10 3.7 15.3 3.7h1.4c8-.3 15.7-3.4 21.6-8.8 2.3-2.1 5.3-3.3 8.5-3.3 2.9 0 5.7 1 7.9 2.7 6 4.8 13.5 7.4 21.1 7.4h1.4c5.6-.2 11.3-1.8 16.2-4.8 1.4-.8 2.9-2 4.7-3.5 2.3-2 5.2-3.1 8.3-3.1h1c3.4.3 6.6 2 8.7 4.6 7.3 8.9 11.4 19.7 11.8 31.1.2 5.4-.5 10.7-2 15.9-1.8 9.6-8.7 17.1-16 25.1l-.3.3c-5.1 5.6-10.4 11.4-13 17.5-7.4 17.2-11.1 51.7-10.5 99.7.1 7-5.6 12.7-12.5 12.8h-.4zM51.9 221.5c-8.1 0-16.2-2-23.5-5.7C11.6 207.3.7 190.3 0 171.3c-.2-5.4.5-10.7 2-15.9 1.8-9.6 8.8-17.2 16.1-25.2l.2-.2c5.1-5.6 10.3-11.3 12.9-17.5 7.4-17.3 11.1-51.7 10.6-99.7C41.7 5.8 47.3.1 54.3 0h.2C61.8.2 67 5.5 67.1 12.5c.6 52.1-3.7 89.1-12.6 109.9-4.4 10.3-11.9 18.4-17.8 24.9-4.4 4.9-9.4 10.4-10.1 13.7v.2l-.1.2c-.9 3.3-1.3 6.1-1.2 9.1.3 9.6 5.9 18.4 14.6 22.8 3.7 1.9 7.8 2.9 11.8 2.9h1.1c8-.2 15.3-4 20.3-10.3 2.3-3 5.8-4.7 9.5-4.9h.4c3.6 0 7.1 1.6 9.5 4.2 5.2 5.8 12.5 9 20.6 9h.4c4.4-.2 8.8-1.5 12.7-3.8 8.3-5 13.3-14.1 13-23.8-.1-2.8-.6-5.5-1.6-8l-.1-.2-.1-.2c-1-3.7-5.8-8.3-10-12.3-6.6-6.3-14-13.5-18.7-23.7-9.5-20.5-14-57.4-13.4-109.6C95.4 5.3 100.6.2 108 .1c7 .1 12.7 5.8 12.6 12.8-.7 60.3 5.6 86.9 11.1 98.7 2.7 5.8 8.1 11.1 13.3 16.1 6.9 6.7 14.1 13.5 16.6 23.2 1.6 4.5 2.7 9.8 2.8 15 .6 18.9-9.1 36.7-25.3 46.4-7.5 4.5-16.1 7-24.8 7.3h-2c-10.1 0-20.1-3.1-28.6-8.7-8.5 6.6-19 10.4-29.9 10.8l-1.9-.2z"/></g></svg><svg id="eye" viewBox="0 0 419.6 244.6" width="43" height="25" y="51" xmlns="http://www.w3.org/2000/svg"><style>.bheart{fill:#fff}</style><g class="bheart"><path d="M418.1 119.5l-56.3-56.3C321.1 22.4 266.9 0 209.1 0c-57.7 0-112 22.4-152.7 63.2L1.5 118.1c-1 .9-1.5 2.2-1.5 3.5 0 1.3.5 2.6 1.5 3.5l56.3 56.3c40.7 40.7 95 63.2 152.7 63.2 57.8 0 112-22.4 152.7-63.2l54.9-54.9c.9-.9 1.5-2.2 1.5-3.5s-.5-2.6-1.5-3.5zM74.6 164.6l-43-43L73.3 80c36.2-36.2 84.5-56.2 135.9-56.2 51.4 0 99.6 19.9 135.9 56.2l43 43-41.6 41.6c-36.2 36.2-84.5 56.2-135.9 56.2-51.5 0-99.7-20-136-56.2z"/><path d="M204.5 76.3c-22.4 0-40.7 18.3-40.7 40.7 0 5.6 4.5 10.1 10.1 10.1S184 122.6 184 117c0-11.3 9.2-20.5 20.5-20.5 5.6 0 10.1-4.5 10.1-10.1s-4.5-10.1-10.1-10.1z"/><path d="M209.6 41c-44.7 0-81.1 36.4-81.1 81.1 0 44.7 36.4 81.1 81.1 81.1 44.7 0 81.1-36.4 81.1-81.1 0-44.7-36.4-81.1-81.1-81.1zm0 140.5c-32.8 0-59.4-26.6-59.4-59.4s26.6-59.4 59.4-59.4S269 89.3 269 122.1s-26.6 59.4-59.4 59.4z"/></g></svg><svg id="heart" viewBox="0 0 409.6 324.2" width="51" height="31" y="76" xmlns="http://www.w3.org/2000/svg"><style>.cheart{fill:#fff}</style><path d="M409.6 110.1c0 11.6-1.9 23.1-5.6 34.2-17.4 78.7-167.8 174-174.2 178-2 1.2-4.2 1.9-6.5 1.9s-4.6-.6-6.6-1.9c-1.7-1.1-44.1-27.9-87.1-64.6-5.1-4.4-5.7-12.1-1.4-17.2 4.4-5.1 12.1-5.7 17.2-1.4 32 27.4 64.4 49.5 77.8 58.4 45.2-29.5 144.9-104.4 157.2-159.7 3.2-9.8 4.6-18.6 4.6-27.7 0-31.4-17.1-60.3-44.6-75.5-35.1-19.5-82.2-10.5-107.9 20.5-4.6 5.6-14.1 5.6-18.8 0-25.7-31-72.7-39.9-107.8-20.5C78.3 49.8 61.2 78.7 61.2 110c0 9 1.5 17.9 4.3 26.5 1.8 8.1 5.3 15.9 9.7 24.1h71.3l24.5-56.2c2.1-4.8 7.1-7.8 12.3-7.3 5.2.5 9.6 4.2 10.8 9.4l18 76.2 23.3-38.2c2.2-3.6 6.1-5.8 10.4-5.8H290c6.7 0 12.2 5.4 12.2 12.2 0 6.7-5.5 12.2-12.2 12.2h-37.4l-35.1 57.7c-2.2 3.7-6.2 5.9-10.4 5.9-.7 0-1.3-.1-1.9-.1-4.9-.8-8.8-4.4-10-9.2L178.7 148l-13 29.9c-1.9 4.5-6.3 7.3-11.2 7.3H12.2C5.5 185.2 0 179.7 0 173c0-6.7 5.5-12.2 12.2-12.2H48c-2.5-6.1-4.6-11.9-5.9-17.6-3.4-9.9-5.3-21.4-5.3-33 0-40.3 21.9-77.3 57.3-96.8 41-22.7 95.2-15.5 129.1 16.3 33.8-31.8 88-39 129-16.3 35.4 19.3 57.4 56.4 57.4 96.7zm0 0" class="cheart"/></svg><svg id="heart_md" viewBox="0 0 294.9 380.5" width="28" height="36" y="107" xmlns="http://www.w3.org/2000/svg"><style>.dst0{clip-path:url(#dSVGID_2_)}.dst0,.dst1{fill:none;stroke:#fff;stroke-width:25;stroke-linecap:round;stroke-linejoin:round;stroke-miterlimit:10}</style><defs><path id="dSVGID_1_" d="M12.5 11.5h270v369h-270z"/></defs><clipPath id="dSVGID_2_"><use xlink:href="#dSVGID_1_" overflow="visible"/></clipPath><path class="dst0" d="M176 294.6c-4.4-6.6-28.6-39.1-28.6-39.1-12 15.8-22.5 30-28.6 39.1-4.1 6.2-7.1 13.4-7.1 21.5.1 19.6 16 35.5 35.7 35.4 19.6.1 35.6-15.8 35.7-35.4.1-8.1-2.9-15.3-7.1-21.5z"/><path class="dst1" d="M210.4 12.5c-27.2 0-50.9 15.2-62.9 37.7-12-22.4-35.7-37.7-62.9-37.7-39.8 0-72 32.2-72 72 0 16.3 11.2 31.3 20.3 43.4 28.2 37.3 73 72.7 114.6 127.6 41.6-54.8 92.2-90.3 120.4-127.6 9.1-12.1 14.6-27.1 14.6-43.4-.1-39.8-32.3-72-72.1-72z"/></svg><svg id="humen" viewBox="0 0 386.6 426.6" width="48" height="53" y="143" xmlns="http://www.w3.org/2000/svg"><style>.ehumen{fill:#fff}</style><g class="ehumen"><path d="M163.8 426.6c-2.1 0-4.2-.3-6.2-.9-4.9-1.5-8.4-4.6-9.8-8.8-1.4-4.2-.5-9 2.5-13.1 3.8-5.4 4.9-12.5 3.6-23.1-.3-2.5-.6-4.9-1-7.4-1.1-8.1-2.2-16.6-2.7-25.1-.6-10.6-.7-21.7-.3-34.2 0-1.6.1-3.2.2-4.8.2-4.2.4-8.2.1-12.1-.3-3.9-.9-7.8-1.5-11.9l-.6-4.5c-1.1-7.9-1.8-15.9-2.5-23.6-.3-3.4-.6-6.8-.9-10.1-.5-5-1.1-10.2-1.6-15.1-.5-4.8-1.1-9.8-1.6-14.8-1.1-11.3-1.6-22.7-2.1-33.8l-.2-4.9c-.2-3.3-.3-6.7-.4-10-.3-7.8-.6-15.8-1.3-23.7-.1-.7-.1-1.5-.2-2.2-.4-5.2-.8-11.7-4-14.7-1.9-1.9-4.6-2.5-6.5-2.6l-7.2-.6c-2.8-.2-5.7-.4-8.5-.7-1.6-.2-3.1-.3-4.7-.5-5.1-.6-10.3-1.1-15.4-1.1-1.3 0-2.5 0-3.7.1-4.2.3-8.4.8-12.2 1.2l-15.3 1.8c-6.8.8-13.8 1.7-20.8 2.5-1.8.2-3.6.4-5.5.7-5.5.7-11.3 1.4-17 1.4-2.3 0-4.5-.1-6.5-.4-1.4-.2-5.8-.7-8.3-4.2-1.1-1.5-2.2-4.2-1.2-8.1 2.2-9.4 12.2-11.5 18.9-12.9 1.3-.3 2.5-.5 3.5-.8 10.7-2.8 21.7-5.8 32.9-8.4l2.6-.6c5.4-1.3 11-2.6 16.8-3.2 8.1-.9 16.4-1.5 24.4-2 1.9-.1 13.2-.9 13.2-.9 9-.6 18.4-1.3 27.5-2l1.6-.1c3-.3 6.4-.5 8.9-.9.4-.1.7-.1 1.1-.2.4-.2.8-.3 1.3-.3.6-.1 1.3-.2 2-.2 2.9 0 5.8 1.2 8.2 2.2.7.3 1.5.6 1.9.7 3.5 1 7 1.9 10.2 1.9.6 0 1.2 0 1.8-.1 3.2-.4 6.5-1.3 9.6-2.1 4.6-1.3 8.5-2.3 13.2-2.6 9-.5 18.1-.8 26.9-1.1 3.9-.1 7.9-.2 11.8-.4 2.4-.1 4.8-.2 7.2-.4 3.9-.2 7.9-.5 11.9-.5 2.8 0 5.4.1 7.8.4 12.7 1.3 25.9 2.9 40.3 4.8 1.7.2 3.4.4 5.2.6 5.2.6 10.6 1.2 15.7 2.8 7.6 2.4 8.6 7.4 8.5 10.2-.1 2.7-1.6 6.3-4.8 7.9-2.6 1.3-5.2 1.7-7.5 2.1l-.6.1c-4.4.7-8.8 1.2-12.9 1.7-12.4 1.4-25.1 2.6-37.4 3.8-11.9 1.1-24.2 2.3-36.3 3.6-4.2.5-9.1 1-13.9 1.8l-.6.1c-5 .8-8.3 1.4-9.7 3.9-1.3 2.4-1.7 5.4-2.2 8.7-.1 1-.3 2-.5 3l-.2.9c-.9 5.2-1.7 10.1-1.8 15-.1 9.8 1.4 19.6 3 27.7 2.5.3 4.9.5 7.4.8 7.7.8 15.4 1.6 23.1 2.3 17.6 1.8 35.6 4.6 55.1 8.8 12.2 2.6 24.8 5.3 37.1 9.5 3.7 1.2 7 2.8 10.3 4.3 1.3.6 2.6 1.2 4 1.8 6.9 3.1 14.3 4.9 22.1 6.7l2.5.6c.2 0 .4.1.7.2.3.1.7.2 1 .3 4.8 1.8 10.7 6.5 12.8 12.2 1.3 3.5 1 7.2-.9 10.3-3.6 6-9.8 9.4-17 9.4-2.9 0-5.8-.5-8.7-1.6-3.4-1.2-6.8-2.6-10-3.8-6.5-2.6-12.7-5-19.3-6.8-5.1-1.4-10.6-2-17.2-2-2.1 0-4.5.1-7.1.2-2.9.2-5.9.4-8.7.6-6.1.4-12.4.8-18.6.8h-1.1c-4.9 0-9.7-.4-14.4-.7-2-.1-3.9-.3-5.9-.4-13.5-.8-27.2-1.6-40.4-2.3l-2.7-.1c-5.5-.3-10.9-.6-16.4-.9-.6 0-1.2-.1-1.9-.1h-.6c-.1.9 0 1.8 0 2.5v3c-.3 5.6-.5 11.2-.8 16.8l-.2 4.9c-.5 10.8-1 22-1.6 33-.3 4.7-.8 9.3-1.4 13.8-.6 5-1.2 9.8-1.4 14.7-.4 10.6-1 22-2.8 33.6-.5 3.3-1.1 6.7-1.7 9.9-1.4 7.7-2.8 15.6-3.1 23.3-.2 4.4.3 8.7.7 13.2l.2 2c.3 3.4.6 8.5-1.3 13.5-3 6.4-9.9 10.8-18 10.8zm3.5-22c-.4 1.2-1 2.3-1.6 3.5-.3.6-.7 1.2-1.2 1.9-.2.2-.4.6-.7 1 1.2 0 2-.3 2.3-.5.7-.2 1.6-1.5 1.2-5.9zM89.6 106.7c1 0 1.9 0 2.9.1 9.5.4 19 1.3 28.3 2.2 2 .2 3.9.4 5.9.6 9.6.9 16.5 4.6 20.5 11 4.4 7 5 15.2 5.6 22.5v.6c.3 4 .5 8 .7 11.9l.1 1.6c.2 4 .4 8.1.6 12.1.4 9.6.9 19.5 1.4 29.2.6 10.8 1.8 21.8 3 32.4.5 4.6 1 9.3 1.5 13.9.4 3.6.7 7.1 1 10.7.7 7.9 1.4 16 2.5 23.9.2 1.3.4 2.7.6 4 .7 4.3 1.3 8.7 1.6 13.2.3 4.3.1 8.5-.1 12.5-.1 1.3-.1 2.7-.1 4-.4 13.4-.3 23.7.2 33.4.4 7.8 1.4 15.5 2.4 23.4.4-2.4.8-4.7 1.2-7.1.4-2.3.8-4.6 1.2-6.8 1.8-11 2.8-22 3.2-33.5.2-5.7.8-11.3 1.5-16.7.6-4.7 1.1-9.1 1.3-13.6.6-10.5 1.1-21.2 1.5-31.5l.3-5.7c.1-2.9.3-5.9.4-8.8.2-5.7.5-11.6.8-17.5.3-5.1 3.7-11.3 9.4-12.8.7-.2 1.3-.3 2-.3h.2c.4 0 .6 0 1 .1l1 .1c3.2.2 6.5.4 9.7.6 0 0 12.2.7 17.3 1l26.4 1.5c2.6.2 5.2.3 7.8.5 8.5.5 17.3 1.1 25.8 1.1 3.6 0 7-.1 10.2-.3 2-.1 4-.3 6-.4 5.6-.4 11.3-.8 17.1-.8 1.8 0 3.5 0 5.1.1 8.4.4 16.4 2.5 23.5 4.9-1.9-.9-3.8-1.8-5.6-2.6-.8-.4-1.7-.8-2.5-1.2-5-2.4-10.7-3.8-16.2-5.3l-1.6-.4c-11.7-3.1-24.1-5.9-39.2-8.8l-3.2-.6c-7.2-1.4-14.6-2.9-21.9-3.6-7.1-.7-14.2-1.4-21.1-2.1l-12-1.2-9.3-.9c-.6-.1-1.3-.1-2-.1-1.9-.1-4.1-.2-6.2-.8-2.7-.8-4.9-3-5.4-5.7-2.1-10-4.3-22-4.5-34-.1-6.5.8-12.9 1.6-17.7.2-1.3.4-2.7.6-4 .5-3.6 1-7.3 2.1-10.9 2.8-8.6 9.2-14.4 18.1-16.1 4-.8 8-1.3 12.2-1.9 15.6-2 31.6-3.5 46.9-4.9 2.9-.3 5.8-.5 8.8-.8-7.1-.9-14.2-1.7-21.3-2.2-.5 0-1-.1-1.6-.1-1.5 0-3.1.1-4.8.3-1.2.1-2.4.2-3.6.2-6.6.3-13.2.5-20 .8-3.2.1-6.4.2-9.6.2-7.9.2-16 .3-23.8 1.2-.5.2-.9.3-1.2.4-.3.1-.5.1-.6.2-1.4.4-2.9.8-4.4 1.3-3.4.9-7 1.9-10.9 2.4-1.5.2-3 .3-4.6.3-6.9 0-13.3-2-19.4-4-.4-.1-.9-.3-1.3-.4-.7.1-1.4.2-2 .2-.3 0-.5.1-.8.1-2.8.4-5.5.6-8.6.9-8.1.7-16.3 1.3-24.2 1.8l-8.5.6c-7 .5-14.3 1-21.5 1.5-1.1.1-2.2.2-3.2.2-4.6.3-9.4.7-13.4 1.5-2.8.6-5.6 1.2-8.5 1.8l.7-.1c1.8-.2 3.6-.5 5.5-.7 6.3-1.2 12.9-2.1 19.5-2.1zM353 227.8c2.8 1.1 5.7 2.3 8.5 3.5 2.3 1 4.8 1.9 6.8 1.9.6 0 1.1-.1 1.6-.3-.7-.7-1.5-1.3-2-1.4-1.1-.3-2.3-.5-3.4-.8-3.8-.9-7.7-1.8-11.5-2.9z"/><path d="M370.7 221.3c-8.8-2.1-17.7-4-26-7.7-4.6-2.1-8.9-4.4-13.7-6-11.9-4-24.3-6.7-36.6-9.3-18.1-3.9-36.1-6.9-54.6-8.8-7.7-.8-15.4-1.5-23.1-2.3-3-.3-6.1-.6-9.1-.9l-3-.3c-.5-.1-1.6-.4-.5 0 .7.6 1.3 1.3 1.9 1.9-2.4-11.2-4.3-22.7-4.2-34.2.1-5.6 1.1-11.2 2-16.7.8-4.4 1-9.3 3.2-13.3 2.7-5.1 8.8-5.8 13.9-6.6 4.7-.7 9.4-1.3 14.1-1.8 24.5-2.8 49.1-4.6 73.6-7.4 4.2-.5 8.4-1 12.6-1.7 2.2-.4 4.6-.7 6.6-1.7 1.3-.7 2.1-2.3 2.1-3.7.1-3-2.5-4.4-5-5.2-6.3-2-13.5-2.3-20.1-3.2-13.4-1.8-26.7-3.4-40.2-4.8-8.7-.9-17.5.2-26.2.5-12.9.5-25.7.7-38.6 1.5-4.3.3-8 1.2-12.2 2.4-3.4.9-6.8 1.9-10.3 2.3-4.7.6-9.5-.7-14-2-2.5-.7-8-3.8-10.5-2.3.9-.5.2-.1-.2 0-.5.1-1.1.2-1.6.3-3.1.5-7.3.8-10.8 1.1-11.7 1-23.5 1.7-35.2 2.6-9.9.7-19.9 1.3-29.8 2.4-6.3.7-12.6 2.3-18.8 3.7-11 2.5-21.9 5.4-32.7 8.3-6.2 1.7-16.9 2.3-18.7 10-1 4.3 1.5 5.8 5.3 6.2 9.1 1.1 18.9-.7 27.9-1.7 12-1.3 24.1-2.9 36.1-4.3 4.1-.5 8.3-1 12.5-1.2 8.2-.5 16.5.7 24.6 1.5 5.2.5 10.4.8 15.6 1.3 3.5.3 6.9 1.6 9.5 4 5.1 4.9 5.1 13.7 5.6 20.1.9 11.2 1.2 22.6 1.7 33.8.6 12.8 1.1 25.7 2.4 38.5 1 10 2.3 19.9 3.3 29.9 1.1 11.2 1.9 22.5 3.4 33.6.8 5.5 1.7 11 2.1 16.6.5 5.8-.1 11.7-.2 17.5-.3 11.2-.3 22.5.3 33.7.6 10.8 2.2 21.4 3.6 32.1 1.1 9.1 1 18.8-4.5 26.6-4.2 5.8-2.3 12.1 4.7 14.2 6.6 2 15.1-.4 17.7-7.2 1.4-3.6 1.4-7.5 1-11.3-.5-5.3-1.2-10.5-.9-15.8.5-11.3 3.1-22.6 4.9-33.8 1.7-11 2.3-21.9 2.7-33 .3-9.6 2.3-19 2.8-28.5.7-12.6 1.2-25.2 1.8-37.9.3-5.9.5-11.9.8-17.8.1-2.9-.6-8.5 2.7-10l-2.1.3c2.3.5 5 .4 7.3.6 5.5.3 10.9.6 16.4.9 14.4.8 28.8 1.6 43.1 2.5 6.7.4 13.4 1.1 20.1 1.1 9.4.1 18.8-.9 28.2-1.4 8.8-.4 17.3-.3 25.8 2 10.2 2.8 19.7 7.2 29.7 10.8 7.4 2.7 15.5 1.3 19.7-5.7 3.8-6.1-4.4-13.6-9.9-15.3-3.4-1-4.9 4.3-1.5 5.4 2.5.8 4.9 3.2 6.3 5.4 1.5 2.3-1.8 4.8-3.7 5.5-4 1.6-8.6-.1-12.3-1.7-4.9-2.1-9.8-4-14.8-5.8-8.6-3.1-17.3-5.7-26.4-6.1-9.2-.4-18.4.5-27.6 1.1-14.9.9-29.6-.4-44.5-1.3-13.9-.8-27.7-1.5-41.6-2.3-4-.2-7.9-.4-11.9-.7-.4 0-.8-.1-1.2-.1-.3 0-.8-.1.4.1-.6-.1-.9-.2-1.5 0-3.3.9-5.6 5.1-5.8 8.3-.5 8.7-.8 17.5-1.2 26.2-.6 12.4-1.1 24.9-1.8 37.3-.6 10.1-2.5 20-2.8 30.2-.4 11.5-1.4 22.8-3.3 34.2-1.7 10.7-4 21.5-4.3 32.4-.1 4.8.6 9.5 1.1 14.3.4 4 .4 9.3-3.6 11.5-2.9 1.6-8 1.5-10.6-.6-2.1-1.7 2.5-7 3.3-8.5 4.3-8.3 4.1-17.9 2.9-26.8-1.4-10.8-2.9-21.4-3.5-32.3-.6-11.2-.5-22.5-.2-33.8.1-5.4.5-10.7.2-16.1-.3-5.6-1.4-11.2-2.2-16.7-1.6-11.5-2.4-23.2-3.5-34.8-1.5-15.5-3.5-31-4.4-46.5-.8-13.8-1.3-27.6-2-41.4-.2-4.4-.4-8.9-.8-13.3-.6-7.1-1.1-14.6-4.9-20.8-3.6-5.9-10.1-8.1-16.7-8.7-11.3-1-22.6-2.3-33.9-2.7-9.1-.4-18.2 1.3-27.2 2.4-12.2 1.5-24.4 3.1-36.6 4.2-4.7.4-9.4.8-14.1.9-1.1 0-3.3-.1-3.8-.1-.4-.1-.9-.2-1.3-.3.7.2-.1-.2.6.4 1.1.9.4.7 1.1-.6.6-1.2 2.5-1.5 3.6-1.9 2.3-.7 4.6-1.2 6.9-1.9 5.7-1.5 11.3-3 17-4.5 10.9-2.8 21.8-5.5 32.8-7.7 5.2-1.1 11.4-1.4 17.3-1.8 9.3-.7 18.5-1.3 27.8-2 8.8-.6 17.5-1.2 26.3-2 2.8-.2 5.6-.5 8.4-.9 1.5-.2 3.5-.2 4.9-1.1l-2.1.3c8.2 2.5 16.5 5.9 25.2 4.6 3.5-.5 6.9-1.4 10.3-2.3 1.4-.4 2.9-.8 4.3-1.2.5-.1 2.6-.7 2.3-.7 11.3-1.2 22.9-1.1 34.2-1.5 6.6-.2 13.3-.4 19.9-.8 3.5-.2 7.1-.7 10.6-.4 11.9.9 23.8 2.5 35.7 4.1 6.9.9 13.8 1.8 20.7 2.9 1.6.2 3.2.5 4.8.8.9.2 1.7.4 2.5.7 1.3.4-.3.1.1-.8.3-.7.9-.8.8-.8-.4.2-.9.3-1.4.4-7.8 2-16.2 2.4-24.2 3.2-24.4 2.5-48.9 4.3-73.3 7.5-4 .5-7.9 1-11.8 1.8-7.1 1.4-12.1 5.9-14.3 12.8-1.4 4.5-1.8 9.5-2.5 14.2-.9 5.6-1.6 11.2-1.5 16.8.1 11 2.1 22.2 4.4 33 .2.9 1 1.7 1.9 1.9 2.2.7 5 .6 7.3.8 5.2.5 10.4 1.1 15.6 1.6 8.9.9 17.8 1.8 26.8 2.7 8.6.8 17.1 2.6 25.6 4.2 13.2 2.6 26.5 5.4 39.5 8.9 6.3 1.6 12.8 3.2 18.7 6 4.7 2.2 9.2 4.5 14.1 6.2 6.2 2.1 12.7 3.5 19.1 5 3.3.3 4.8-5.1 1.3-5.9zm0 0M176.9 75.3c-7.4 0-14.5-2.2-20.4-6.3-15-10.4-20.7-29.3-13.9-45.8C148.4 9.3 162.4 0 177.5 0c2.5 0 4.9.3 7.3.8 17.5 3.7 29.9 18.8 30.2 36.8v.7c-.3 9.9-4.1 19-10.7 25.7-7.2 7.2-17.1 11.3-27.4 11.3zm.6-59.7c-5.8.1-11.5 2.5-15.7 6.6-4.3 4.2-6.6 9.7-6.5 15.4.2 12 10.1 22.2 21.7 22.2h.3c12.2-.2 21.9-9.9 22.2-22.1-.2-12-10.1-22.1-21.7-22.1h-.3z"/><path d="M204.5 37.7c-.2 14.9-12.1 26.9-27.1 27.1-14.9.2-26.9-12.5-27.1-27.1-.2-14.9 12.5-26.9 27.1-27.1 14.9-.2 26.9 12.5 27.1 27.1.1 3.6 5.6 3.6 5.6 0-.2-15.5-11-28.8-26.2-32-15-3.1-30.7 5.3-36.5 19.4-6 14.5-.7 31 12.1 39.8 12.8 8.9 30.6 6.3 41.4-4.5 6-6 9.1-14.4 9.2-22.8 0-3.5-5.6-3.5-5.6.1zm0 0"/></g></svg><svg id="logo" viewBox="0 0 159.7 99.9" width="67" height="42" y="196" xmlns="http://www.w3.org/2000/svg"><style>.fst0{opacity:.4;fill:#5363db}</style><path class="fst0" d="M26.9 92.7c17.2 9.9 37.6 9.3 53.7.1-.1-18.5-9.7-36.5-26.9-46.5S16.1 37 0 46.3c.1 18.5 9.7 36.5 26.9 46.4z"/><path class="fst0" d="M34.1 65.9C44 83.1 62 92.8 80.6 92.8c9.2-16.1 9.9-36.5-.1-53.7S52.6 12.3 34 12.2c-9.2 16.1-9.8 36.5.1 53.7z"/><path class="fst0" d="M132.8 91.7c-17.2 9.9-37.6 9.3-53.7.1.1-18.5 9.7-36.5 26.9-46.5s37.6-9.3 53.7-.1c-.1 18.6-9.7 36.6-26.9 46.5z"/><path class="fst0" d="M125.6 64.9c-9.9 17.2-27.9 26.8-46.5 26.9-9.2-16.1-9.9-36.5.1-53.7s27.9-26.8 46.5-26.9c9.2 16.1 9.9 36.5-.1 53.7z"/><path class="fst0" d="M53.5 46.5c0 19.9 10.8 37.2 26.8 46.5 16-9.3 26.8-26.7 26.8-46.5S96.3 9.3 80.3 0c-16 9.3-26.8 26.7-26.8 46.5z"/></svg><svg id="sleep" viewBox="0 0 419.6 419.6" width="34" height="34" y="238" xmlns="http://www.w3.org/2000/svg"><style>.gsleep{fill:#fff}</style><g class="gsleep"><path d="M209.8 419.6c-33.4 0-66.6-8-96.1-23.3l-96.7 22c-1 .2-1.9.3-2.9.3-3.5 0-6.9-1.4-9.3-3.9-3.2-3.2-4.5-7.8-3.5-12.2l22.1-96.7C8 276.4 0 243.2 0 209.8c0-56 21.8-108.7 61.4-148.4C101.1 21.8 153.8 0 209.8 0s108.7 21.8 148.3 61.4c39.6 39.6 61.5 92.3 61.5 148.4s-21.8 108.7-61.5 148.4c-39.6 39.6-92.3 61.4-148.3 61.4zm-94.3-50.4c2.2 0 4.4.6 6.3 1.6 26.8 14.7 57.2 22.4 88 22.4 101.2 0 183.5-82.3 183.5-183.5S311 26.2 209.8 26.2 26.3 108.6 26.3 209.8c0 30.8 7.8 61.2 22.4 88 1.5 2.8 2 6.1 1.3 9.2l-18.5 81 81-18.5c1.1-.2 2-.3 3-.3z"/><path d="M354.6 65C315.9 26.3 264.5 5 209.8 5 155.1 5 103.7 26.3 65 65 26.3 103.7 5 155.1 5 209.8c0 33.3 8.1 66.2 23.6 95.5L6.1 403.7c-.6 2.7.2 5.6 2.2 7.6s4.9 2.8 7.6 2.2l98.5-22.5c29.3 15.4 62.2 23.6 95.5 23.6 54.7 0 106.1-21.3 144.8-60 38.7-38.7 60-90.1 60-144.8S393.3 103.7 354.6 65zM209.8 398.3c-31.6 0-62.8-8-90.4-23-1.2-.7-2.6-1-3.9-1-.6 0-1.2.1-1.8.2l-88.8 20.3L45.1 306c.4-1.9.2-4-.8-5.7-15.1-27.5-23-58.8-23-90.4 0-103.9 84.6-188.5 188.5-188.5S398.3 106 398.3 209.9c0 103.8-84.6 188.4-188.5 188.4zm0 0"/><path d="M102.8 295.2c-5 0-9.5-3-11.4-7.6-1.9-4.6-.9-9.9 2.7-13.5l53.1-53.4h-44.3c-6.8 0-12.4-5.6-12.4-12.4s5.6-12.4 12.4-12.4H177c5 0 9.5 3 11.4 7.6 1.9 4.6.9 9.9-2.6 13.5l-53.1 53.4H177c6.8 0 12.4 5.6 12.4 12.4 0 6.8-5.6 12.4-12.4 12.4h-74.2z"/><path d="M176.8 275.5h-56.3l61.5-61.9c2.1-2.1 2.7-5.3 1.6-8s-3.8-4.6-6.8-4.6h-74.1c-4.1 0-7.4 3.3-7.4 7.4 0 4.1 3.3 7.4 7.4 7.4H159l-61.5 61.9c-2.1 2.1-2.7 5.3-1.6 8 1.1 2.8 3.8 4.5 6.8 4.5h74.1c4.1 0 7.4-3.3 7.4-7.4 0-4-3.3-7.3-7.4-7.3zm0 0M218.6 248.3c-5.2 0-9.9-3.1-11.9-7.9-2-4.8-.9-10.3 2.8-14l75.1-75.5h-65.9c-7.1 0-12.9-5.8-12.9-12.9 0-7.1 5.8-12.9 12.9-12.9h96.9c5.2 0 9.9 3.1 11.9 7.9 2 4.8.9 10.3-2.8 14l-75.1 75.5h65.9c7.1 0 12.9 5.8 12.9 12.9s-5.8 12.9-12.9 12.9h-96.9z"/><path d="M315.5 227.5h-78l83.6-84c2.2-2.3 2.9-5.6 1.7-8.6-1.2-2.9-4.1-4.8-7.3-4.8h-96.9c-4.3 0-7.9 3.5-7.9 7.9s3.5 7.9 7.9 7.9h78l-83.6 84c-2.2 2.3-2.9 5.6-1.7 8.6 1.2 2.9 4.1 4.9 7.3 4.9h96.9c4.4 0 7.9-3.5 7.9-7.9s-3.6-8-7.9-8zm0 0M271.1 349.8c-3.9 0-7.4-2.2-9.2-5.6-2.6-5.1-.5-11.3 4.5-13.8 20.5-10.4 37.3-26.6 48.3-46.8 1.8-3.3 5.3-5.3 9-5.3 1.7 0 3.4.4 4.9 1.3 2.4 1.3 4.2 3.5 4.9 6.1.8 2.6.5 5.4-.9 7.8-13.1 23.8-32.8 42.9-57.1 55.2-1.2.7-2.8 1.1-4.4 1.1z"/></g></svg><svg id="waist" viewBox="0 0 417.6 417.6" width="40" height="36" y="272" xmlns="http://www.w3.org/2000/svg"><style>.hwaist{fill:#fff}</style><g class="hwaist"><path d="M123.5 417.6c-5 0-9.5-3-11.5-7.5-2.2-5.1-53.9-124.7-41.7-186.2v-.6l.2-.4c7.3-35.4 18.7-55.7 27.9-72.1 6.1-10.9 10.9-19.4 12.8-29.6 3.6-19.1-8.4-74.7-16.8-105.3-1-3.8-.2-7.9 2.1-10.9 2.4-3.1 6-4.9 10-4.9h204.8c3.9 0 7.6 1.8 10 4.9 2.4 3.1 3.1 7.1 2.1 10.9-8.4 30.6-20.4 86.2-16.8 105.3 1.9 10.2 6.7 18.8 12.8 29.6 9.2 16.3 20.6 36.6 27.8 71.8l.3.4v.9c12.1 61.5-39.5 181.2-41.7 186.3-2 4.6-6.5 7.5-11.5 7.5H123.5zm162.3-25.1c5-12.2 13.5-34.1 21.3-59.1 10.7-34.3 16.5-63.5 17.1-85.1l-102.8 69.5v74.7h64.4zm-89.5 0v-74.7L93.5 248.3c.5 21.6 6.4 50.7 17.1 85.1 7.8 25 16.3 47 21.3 59.1h64.4zm12.5-96.4l85.3-57.7H123.5l85.3 57.7zm110.3-82.8c-6.3-22.8-14.4-37.3-21.7-50.3-7-12.4-13-23.1-15.6-37.3-2.6-13.7-.4-37.6 6.5-71.2 1.9-9.4 4.2-19.4 6.7-29.5H122.6c2.5 10.2 4.8 20.1 6.7 29.5 6.9 33.6 9.1 57.5 6.5 71.2-2.7 14.2-8.7 24.9-15.6 37.2-7.3 13-15.5 27.5-21.7 50.3h220.6z"/><path d="M343.4 224.2c-.1 0-.1-.1 0 0-7.2-35.1-18.5-55.3-27.6-71.4-6.3-11.2-11.3-20-13.3-30.8-4.2-22.3 10.8-84.9 16.9-107.1.7-2.6.2-5.3-1.4-7.4-1.6-2.1-4.1-3.4-6.8-3.4H106.4c-2.7 0-5.2 1.2-6.8 3.4-1.6 2.1-2.2 4.9-1.4 7.4 6.1 22.2 21.1 84.8 16.9 107.1-2 10.8-7 19.6-13.3 30.8-9.1 16.2-20.4 36.3-27.5 71.4v.2c-12.1 60.1 39.2 179.2 41.4 184.2 1.4 3.1 4.4 5.1 7.8 5.1h170.7c3.4 0 6.5-2 7.8-5.1 2.1-5.2 53.5-124.2 41.4-184.4zm-226.7-63.1c6.8-12.1 12.6-22.5 15.2-36.1 2.5-13.2.3-36.6-6.5-69.7-2.8-13.6-5.8-26-7.9-34.3h182.7c-2.1 8.3-5.1 20.7-7.9 34.3-6.8 33.1-9 56.5-6.5 69.7 2.5 13.6 8.4 24 15.2 36.1 8 14.2 16.9 30.1 23.4 56.2h-231c6.4-26.1 15.3-42 23.3-56.2zm83.6 235.4h-71.1c-4.2-10.1-13.8-34.2-22.4-62-12.2-39.2-18-71.2-17.2-93.8l110.8 74.9v80.9zm-89.8-162.1h196.7l-98.3 66.5-98.4-66.5zm200.4 100.2c-8.6 27.8-18.2 51.8-22.4 62h-71.1v-80.8l110.8-74.9c.7 22.5-5.1 54.5-17.3 93.7zm0 0"/><path d="M55.2 153.1c-3.4 0-6.5-1.3-8.9-3.7-2.4-2.4-3.7-5.5-3.7-8.9 0-3.3 1.3-6.5 3.7-8.9l4.2-4.2h-38c-6.9 0-12.5-5.6-12.5-12.5s5.6-12.5 12.5-12.5h38l-4.2-4.2c-2.4-2.4-3.7-5.5-3.7-8.9 0-3.4 1.3-6.5 3.7-8.9 2.4-2.4 5.5-3.7 8.9-3.7 3.4 0 6.5 1.3 8.9 3.7L89.7 106c4.2 4.2 4.9 10.8 1.6 15.8-.5.7-1 1.4-1.7 2L64 149.4c-2.3 2.4-5.5 3.7-8.8 3.7z"/><path d="M87.9 119.6c2.2-3.3 1.8-7.8-1.1-10.7L61.2 83.3c-3.3-3.3-8.7-3.3-12.1 0-3.3 3.3-3.3 8.7 0 12.1l11 11H12.5c-4.7 0-8.5 3.8-8.5 8.5s3.8 8.5 8.5 8.5h47.7l-11 11c-3.3 3.3-3.3 8.7 0 12.1 1.7 1.7 3.9 2.5 6 2.5 2.2 0 4.4-.8 6-2.5L86.8 121c.5-.4.8-.9 1.1-1.4zm0 0M362.4 153.1c-3.4 0-6.5-1.3-8.9-3.7l-25.6-25.6c-.6-.5-1.1-1.2-1.6-2-3.3-4.9-2.6-11.6 1.6-15.8l25.6-25.6c2.4-2.4 5.5-3.7 8.9-3.7 3.4 0 6.5 1.3 8.9 3.7 2.4 2.4 3.7 5.5 3.7 8.9 0 3.3-1.3 6.5-3.7 8.9l-4.2 4.2h38c6.9 0 12.5 5.6 12.5 12.5s-5.6 12.5-12.5 12.5h-38l4.2 4.2c2.4 2.4 3.7 5.5 3.7 8.9 0 3.3-1.3 6.5-3.7 8.9-2.4 2.4-5.5 3.7-8.9 3.7z"/><path d="M405.1 106.4h-47.7l11-11c3.3-3.3 3.3-8.7 0-12.1-3.3-3.3-8.7-3.3-12.1 0l-25.6 25.6c-2.9 2.9-3.3 7.4-1.1 10.7.3.5.7.9 1.1 1.3l25.6 25.6c1.7 1.7 3.9 2.5 6 2.5 2.2 0 4.4-.8 6-2.5 3.3-3.3 3.3-8.7 0-12.1l-11-11H405c4.7 0 8.5-3.8 8.5-8.5.1-4.7-3.7-8.5-8.4-8.5zm0 0"/></g></svg><svg id="yoga" viewBox="0 0 419.6 284.2" width="49" height="33" y="308" xmlns="http://www.w3.org/2000/svg"><style>.iyoga{fill:#fff}</style><g class="iyoga"><path d="M174.8 284.2c-6.7 0-13.3-2.2-20.2-6.6-2.5-1.6-3.9-4.4-3.9-7.3.1-2.9 1.6-5.4 4.1-6.8 1.3-.8 2.7-1.5 4-2.1 4.3-2.2 8-4.1 10.7-7.3 3.5-4.2 6.4-9.2 8.3-14.5 3.8-10.6 5.9-22.6 6.3-36.6.1-5.1.1-10.4.1-15.5v-5.8c0-2.4-.1-4.8-.1-7.3-.2-4.8-.3-9.7.1-14.5.3-2.7.6-5.4 1-7.9.6-4.3 1.2-8.4 1.2-12.5 0-7.3-.6-13.9-2-20.1-.7-3.4-1.8-6.8-3-10.4-2.7-8.7-5.5-17.6-4.3-27.1.9-7.4 1.3-15.9-2.5-23.1-2.4-4.5-5.6-8.2-9.2-10.5-3.1-2.1-7.3-2.6-12.1-3.2-1-.1-2.1-.3-3.1-.4l-2.3-.3c-5.5-.7-11.3-1.5-16.9-2.9-2.5-.6-5-1.3-7.4-2.1-3.3-1-6.5-1.9-9.7-2.5-8.8-1.6-17.7-1.8-27-2-3.4-.1-6.8-.2-10.3-.3-3.3-.1-6.6-.5-9.7-.8-2.8-.3-5.5-.6-8.1-.7-.7 0-1.3-.1-2-.1-3.5 0-5.8.7-7.3 2.2-2.4 2.5-5.2 4.8-9.2 4.8-2.1 0-4.1-.6-6.2-1.9-1.6-1-3-2.3-4-3.9H8.5c-3.9 0-7.4-2.8-8-6.5 0-.2-.1-.4-.1-.6-.4-1.9-1.2-5.9 2-9 .2-.2.4-.5.7-.7 1.4-1.5 3.4-3.6 6.4-4.4C32.5 6 58 2.5 85.2 2.4h2.5c13 0 26.1.4 38.8.8 12.2.4 24.7.8 37.1.8 2.8 0 5.5 0 8.3.1 3 0 6.1.1 9.1.1 6.1 0 14.1-.1 21.8-1.3l1.6-.2c8.8-1.3 17.9-2.7 27-2.7 3.5 0 6.8.2 10 .6 12.4 1.5 24.4 4.6 36.6 8 3.2.9 6.4 1.7 9.6 2.6 8.5 2.2 17.2 4.5 25.5 7.6 17.7 6.7 31.5 19.6 38.8 36.3 3.6 8.1 5.7 16.7 7.7 24.9.6 2.3 1.1 4.6 1.7 6.9 3.3 12.6 6.9 25.3 10.6 37.8.6 1.9 1.1 3.8 1.6 5.7 1.3 4.5 2.6 9.1 4.2 13.3 1.2 3 2.8 5.9 4.6 9 .9 1.5 1.8 3.1 2.7 4.8 5 9.3 7.4 19.7 9.7 29.7l1.5 6.3c2.2 9.1 4.5 18.3 6.8 27.2.9 3.5 1.8 7 2.6 10.5.5 1.9.9 3.9 1.3 5.7 1.7 7.8 3.3 15.2 8.4 20.4 0 0 .1.1.1.2 5.2 5.8 4.3 11.1 2.6 14.6-2.9 6-10.1 6.6-13.9 6.9h-.4c-.7 0-1.4.1-2.1.2-1.9.2-4 .4-6.2.4-7.8 0-13-2.9-15.5-8.5-1.6-3.7-2-7.2-2.3-10.6-.1-.8-.2-1.7-.3-2.5-.6-5.1-1.6-10.2-3-15.2-2.4-8.9-6-18.3-10.8-28.9-5.6-12.2-11.4-24.6-17-36.6-3.9-8.2-7.8-16.6-11.7-25-4.6-10-9.6-20.7-14.7-31.4-2.5-5.2-5.4-10.3-8.4-15.3-9.8 15.8-19.9 32-29.6 48.2l-7.2 12c-9.7 16.2-19.6 32.9-30.6 48.6-5.8 8.3-12.6 16.7-21.3 26.3-1.3 1.4-2.7 2.9-4.1 4.2-2.7 2.6-5.5 5.4-7.1 8.1-1.4 2.3-1.6 4.7-2 7.9-.1.8-.2 1.7-.3 2.6-.3 2.4-1.9 10.6-8.6 13.7-3.2 1.5-6.4 2.4-9.4 3.3-1.9.6-3.7 1.1-5.5 1.7-3.6 1.3-7.5 2-11.2 2zm-68.2-265l5.4.6c5.2.7 10.1 2.1 14.8 3.4 2.3.6 4.6 1.3 7 1.9 6 1.4 12 2.3 18.3 3.2l4.2.6c6.9 1 13.5 1.9 20 6.8 12.6 9.4 19.5 25.5 18 42-.6 6-.9 11.5.6 17.4.7 2.6 1.4 5.1 2.2 7.8 1 3.1 1.9 6.4 2.7 9.7 3.1 13.1 3.9 25.9 2.4 38-.2 1.5-.4 2.9-.7 4.4-.4 2-.7 3.9-.8 5.7-.1 1.9 0 3.9.1 6 0 1 .1 1.9.1 2.9.1 3.7 0 7.4 0 11 0 2.5-.1 4.9-.1 7.4 0 11.6 0 24.8-2.3 37.8-1.6 9.1-4.3 20.8-10.5 31-2.7 4.4-5.3 7.9-8.2 10.7 1.5-.4 3.1-1 4.7-1.5 1.3-.4 2.7-.9 4-1.3.5-.1 1-.3 1.5-.4 1-.3 2.7-.7 3.2-1.1.3-.6.3-1.3.4-2.6 0-.5.1-1 .1-1.5.4-3.9 1-8 3-11.9 2.1-4.1 5.1-7.2 8-10.3.6-.6 1.2-1.2 1.8-1.9 3.3-3.6 7.1-7.7 10.7-11.9 6.8-7.9 12.9-16 18.7-24.9 10-15.3 19.6-31.2 28.8-46.5 2-3.3 4-6.7 6-10 8.9-14.8 18.2-29.7 27.1-44.1 2.4-3.9 4.9-7.8 7.3-11.8 1.5-2.5 4.2-3.9 7.1-3.9 2.9 0 5.6 1.5 7.1 4.1 1.5 2.5 3 5.1 4.5 7.6 3.2 5.2 6.4 10.6 9.3 16.2 3.4 6.8 6.6 13.7 9.7 20.5 1 2.1 1.9 4.2 2.9 6.3l7.5 16.2c5.8 12.5 11.8 25.5 17.8 38.1l1.6 3.3c7.2 15.1 14.6 30.6 18.6 47.3-.1-.5-.2-.9-.3-1.3-1.5-6.8-3.3-13.8-5-20.5-1.2-4.6-2.4-9.4-3.6-14.2l-.7-3c-1.2-5-2.5-10.2-3.8-15.2-.4-1.4-.7-2.9-1.1-4.3-1-4.3-2.1-8.8-3.7-12.6-1.1-2.8-2.7-5.5-4.4-8.4-1-1.8-2.1-3.6-3.1-5.5-2.7-5.2-4.4-10.6-6-15.8l-.1-.5c-4.5-14.9-8-27-11.1-38-1.1-4.1-2.1-8.3-3.1-12.3-1.7-7-3.5-14.3-5.8-21.1-5.5-16.1-16.1-27.9-29.7-33.3-7.7-3-16.1-5.3-24.3-7.4l-9-2.4-3.6-1c-10.7-3-21.8-6.1-32.7-7.3-2.7-.3-5.4-.4-8.3-.4-8 0-15.8 1.1-24.1 2.2-1.5.2-2.9.4-4.4.6-8.4 1.1-16.9 1.3-23.4 1.3-3 0-6 0-9-.1-2.5 0-5-.1-7.5-.1-15.5-.1-28.1-.2-39.7-.6-4.1-.1-8.2-.3-12.3-.5-1.5-.4-3.2-.5-4.8-.6zm288.1 244h.3c.5 0 1.2-.1 1.8-.1.8-.1 1.6-.1 2.4-.2-3.7-5.9-5.7-12.3-7.2-18.5.8 3.8 1.5 7.4 1.9 10.8.1 1 .2 2.1.2 3.1 0 1.6.1 3.7.6 4.9z"/><path d="M411.9 260.7c-7.5-7.7-8.5-18.5-11-28.4-3.1-12.6-6.3-25.1-9.4-37.7-2.8-11.7-5-24.2-10.7-34.9-2.5-4.8-5.6-9.2-7.6-14.3-2.4-6.2-4-12.9-5.9-19.3-3.8-12.6-7.3-25.3-10.7-38-2.8-10.5-4.9-21.1-9.2-31-7-15.9-19.8-27.6-36-33.6-11.2-4.2-23.2-6.8-34.7-10-11.9-3.4-23.7-6.5-35.9-8C228.1 4 216 6 203.5 7.9c-13.1 2-26.7 1.2-39.9 1.2-26.2-.1-52.3-1.9-78.4-1.7-25.1.1-50.2 3.1-74.4 10.1-2.1.6-3.5 2.4-5 3.9s-.8 3.5-.5 5.2C5.7 28 7.2 29 8.5 29h24.8c.5 1.9 1.6 3.6 3.4 4.6 4 2.4 6.3.9 9.2-2.1 3.4-3.5 8.5-3.9 13.1-3.6 5.9.3 11.8 1.3 17.8 1.5 12.7.5 25.4.1 38 2.4 5.9 1.1 11.5 3.2 17.3 4.6 6.2 1.5 12.5 2.3 18.8 3.1 6.4.9 12.3 1.1 17.2 4.3 4.7 3.1 8.3 7.5 10.9 12.4 4.3 8.1 4.1 17.2 3 26-1.5 12.1 4.6 24.2 7.2 35.8 1.5 7 2.1 14.1 2.1 21.2s-1.5 13.9-2.2 20.9c-.6 7 .1 14.4 0 21.4 0 7.1.1 14.3-.1 21.4-.4 12.9-2.1 26-6.6 38.2-2.1 5.8-5.2 11.3-9.2 16-4.4 5.1-10.4 7.4-16.1 10.6-2.2 1.2-2 4.3 0 5.5 8.8 5.7 17.4 7.6 27.3 4 4.8-1.7 9.8-2.7 14.5-4.9 3.6-1.6 5.3-6.2 5.7-9.8.6-4.5.5-8.4 2.9-12.4 2.9-4.8 8-9 11.8-13.2 7.4-8.2 14.6-16.7 20.9-25.8 13.6-19.4 25.4-40 37.6-60.3 11.2-18.5 22.6-36.8 34-55.2 4.5 7.5 9 14.9 12.8 22.8 5 10.4 9.9 20.9 14.7 31.4 9.5 20.6 19.4 41 28.8 61.6 4.4 9.6 8.3 19.5 11.1 29.7 1.4 5.2 2.5 10.5 3.2 15.9.5 4.1.5 7.9 2.2 11.7 3.2 7.3 12.6 5.5 18.8 5 3.3-.3 8.5-.5 10.2-4.1 1.8-3.1.8-6.1-1.7-8.9zm-6.7 6.7c-2.6.3-5.3.4-7.9.6-2.2.2-5.1.5-6.5-1.6-1.9-2.8-1.5-7.4-1.9-10.6-.5-4.5-1.4-9-2.5-13.5-4.2-17.4-12.2-33.7-19.9-49.8-8.6-18.1-16.9-36.2-25.3-54.3-4.1-8.9-8.2-17.9-12.6-26.6-4.1-8.1-9.1-15.7-13.7-23.5-1.2-2.1-4.3-2-5.6 0-11.5 18.6-23.1 37.1-34.4 55.8-11.5 19-22.8 38.1-35 56.7-5.8 8.9-12.2 17.4-19.1 25.5-3.5 4.1-7.2 8.1-10.8 12.1-3.2 3.5-6.8 6.8-8.9 11-1.6 3.2-2.1 6.7-2.5 10.1-.2 2.1-.1 4-1.1 5.9-1.4 2.6-5.1 3.2-7.6 4-4.8 1.5-9.9 3.7-15 4-3.3.1-6.4-.9-9.3-2.4 2.7-1.4 5.5-2.8 7.9-4.7 4.1-3.3 7.4-7.7 10.1-12.1 5.4-8.8 8.1-19.2 9.9-29.3 2.2-12.2 2.2-24.6 2.2-36.9 0-6.1.2-12.2.1-18.3-.1-3.1-.3-6.1-.1-9.2.1-3.5 1.1-7 1.5-10.5 1.5-12.1.5-24.4-2.3-36.2-1.4-5.9-3.5-11.5-5-17.3-1.7-6.6-1.4-12.4-.7-19.1 1.3-14.4-4.4-28.8-16-37.5-5.8-4.4-11.8-5-19-6-7.3-1-14.5-1.9-21.6-3.7-7.2-1.7-13.9-4.2-21.2-5.1-14.9-2-29.9-1-44.8-2.5-5.7-.6-11.1-1.4-16.8 0-2.4.6-4.7 1.9-6.7 3.4-1 .8-1.8 1.7-2.7 2.6-.1-.1-.1-.2-.3-.3-.5-.4-.7-.8-.5-1.4.5-2-1-4.1-3.1-4.1h-20c3.6-1.3 7.6-1.9 11-2.7 6.4-1.5 12.9-2.6 19.4-3.5 12.7-1.8 25.6-2.5 38.4-2.6 12.9-.1 25.8.7 38.8 1.1 13.2.4 26.4.5 39.6.6 13 0 26.3.6 39.3-1.1 12.8-1.7 25-3.8 38-2.4 12.6 1.4 25 5.1 37.1 8.5 11.2 3.1 22.9 5.7 33.8 10 16.2 6.4 27.1 20.1 32.6 36.3 3.8 11 5.9 22.6 9 33.8 3.5 12.7 7.2 25.3 11 37.9 1.6 5.3 3.2 10.5 5.8 15.4 2.5 4.8 5.6 9.2 7.7 14.3 2.3 5.6 3.5 11.8 4.9 17.6 1.6 6.1 3 12.2 4.5 18.3 2.8 11.6 6.1 23.1 8.6 34.7 2.2 9.8 4.4 19.2 11.6 26.6 1.5 1.8-.6 1.8-2.4 2zm0 0"/><path d="M221.1 189.6c-.9 0-1.7-.2-2.5-.5l-.4-.2c-.2-.1-.3-.1-.5-.2-.1 0-.1 0-.2-.1-3.5-1.5-5.3-4.8-4.7-8.5.5-3 1.1-5.9 1.6-8.9.9-4.8 1.8-9.9 2.6-14.8.2-1 .4-2 .5-3 .6-3 1.1-5.8 1.2-8.6.1-3.3-.1-6.6-.3-9.9-.3-3.6-.6-7.4-.9-10.9-.4-4.2-.7-8.6-1-12.9-.1-.9-.1-1.8-.2-2.8-.5-5.2-1.1-11.8 2.2-17.2 3-5 7.5-7.2 11.5-9.2 1.1-.5 2.2-1.1 3.2-1.6.6-.3 1.1-.6 1.7-1 4.3-2.5 9.2-5.3 14.9-6.1 2-.3 3.9-.4 5.8-.4 4.7 0 8.5 1 11.4 2.9 6.3 4.2 4.3 11.7 3.4 15 0 .1 0 .1-.1.2-5 17.7-10.8 34.7-17 50.6-3.5 8.8-7.2 16.4-11.5 23.1-2.7 4.3-5.6 8.5-8.4 12.6-2 2.9-4 5.9-5.9 8.8-1.6 2.3-4 3.6-6.4 3.6zm33.7-101.8c-3 0-5.9.8-9.1 2.5-1.1.6-2.1 1.2-3.1 1.7-1.2.7-2.5 1.4-3.7 2.1-1 .5-1.9.9-2.8 1.3-1.2.5-2.3 1-3.1 1.5-1.9 1.2-2.2 2.5-1.9 7.6.3 6.5.9 13.1 1.4 19.5v.5c.1 1.3.2 2.7.4 4 .5 5 .9 10.2.8 15.4-.1 1.7-.2 3.4-.4 5.1 2.4-4.4 4.5-8.9 6.3-13.6 6.3-16.5 11.7-32.6 16.1-47.8-.4.2-.6.2-.9.2z"/><path d="M264 79.9c-3.6-2.4-9.6-2.2-13.6-1.6-5.4.8-10.2 3.9-14.8 6.5-4.7 2.7-9.9 4.1-12.8 9-2.9 4.9-1.6 11.7-1.2 17.1.5 7.9 1.3 15.9 1.9 23.8.2 3.5.5 7 .3 10.5-.1 4.1-1.1 8.2-1.8 12.3-1.3 7.9-2.8 15.8-4.2 23.7-.3 1.4.4 2.4 1.7 3 .3.1.7.3 1 .4 1 .4 2.2-.3 2.7-1.1 4.7-7.2 9.7-14.1 14.3-21.3 4.4-7.1 8-14.5 11.1-22.3 6.5-16.4 12.1-33.2 16.9-50.1.7-3.4 1.8-7.7-1.5-9.9zm-19.8 57.5c-5 13.1-12.5 24.5-20.2 35.9.6-3.3 1.2-6.7 1.8-10 1.1-6.4 2.6-12.9 2.8-19.5.2-6.3-.6-12.6-1.1-18.8-.6-6.7-1.1-13.5-1.5-20.2-.2-4.9-.3-9.1 4.2-12 1.9-1.3 4.2-2 6.3-3.1 2.3-1.2 4.6-2.6 6.9-3.8 4.5-2.4 9-3.6 14.1-3 1.1.1 3.1.2 4 1 .7.6-.5 3.7-.7 4.4-4.8 16.6-10.4 33-16.6 49.1zm0 0M135.4 115.9c-15.6 0-29-13.6-29.3-29.8-.1-7.8 3-15.2 8.8-20.9 5.6-5.5 13.3-8.7 21-8.8h.4c15.6 0 29 13.6 29.4 29.6v.3c-.4 16.4-13.4 29.4-29.8 29.6h-.5zm.7-44.5c-3.9.1-7.8 1.7-10.7 4.6-2.8 2.7-4.3 6.3-4.3 10 .1 8 6.8 15 14.3 15h.3c8.1-.1 14.7-6.6 15-14.8-.3-7.9-6.9-14.7-14.3-14.8h-.3z"/></g></svg></svg>