<?xml version="1.0" encoding="utf-8"?>
<!-- Generator: Adobe Illustrator 19.0.0, SVG Export Plug-In . SVG Version: 6.00 Build 0)  -->
<svg version="1.1" id="Layer_1" xmlns="http://www.w3.org/2000/svg" xmlns:xlink="http://www.w3.org/1999/xlink" x="0px" y="0px"
	 viewBox="0 0 159.7 99.9" style="enable-background:new 0 0 159.7 99.9;" xml:space="preserve" width="67px" height="42px">
<style type="text/css">
	.st0{opacity:0.4;fill:#5363DB;}
</style>
<path class="st0" d="M26.9,92.7c17.2,9.9,37.6,9.3,53.7,0.1c-0.1-18.5-9.7-36.5-26.9-46.5S16.1,37,0,46.3
	C0.1,64.8,9.7,82.8,26.9,92.7z"/>
<path class="st0" d="M34.1,65.9C44,83.1,62,92.8,80.6,92.8c9.2-16.1,9.9-36.5-0.1-53.7S52.6,12.3,34,12.2
	C24.8,28.3,24.2,48.7,34.1,65.9z"/>
<path class="st0" d="M132.8,91.7c-17.2,9.9-37.6,9.3-53.7,0.1c0.1-18.5,9.7-36.5,26.9-46.5s37.6-9.3,53.7-0.1
	C159.6,63.8,150,81.8,132.8,91.7z"/>
<path class="st0" d="M125.6,64.9c-9.9,17.2-27.9,26.8-46.5,26.9c-9.2-16.1-9.9-36.5,0.1-53.7s27.9-26.8,46.5-26.9
	C134.9,27.3,135.6,47.7,125.6,64.9z"/>
<path class="st0" d="M53.5,46.5c0,19.9,10.8,37.2,26.8,46.5c16-9.3,26.8-26.7,26.8-46.5S96.3,9.3,80.3,0
	C64.3,9.3,53.5,26.7,53.5,46.5z"/>
</svg>
